<?xml version="1.0" standalone="no"?>
<!DOCTYPE svg PUBLIC "-//W3C//DTD SVG 20010904//EN"
 "http://www.w3.org/TR/2001/REC-SVG-20010904/DTD/svg10.dtd">
<svg version="1.0" xmlns="http://www.w3.org/2000/svg"
 width="190.000000pt" height="134.000000pt" viewBox="0 0 190.000000 134.000000"
 preserveAspectRatio="xMidYMid meet">

<g transform="translate(0.000000,134.000000) scale(0.100000,-0.100000)"
fill="#000000" stroke="none">
<path d="M0 670 l0 -670 950 0 950 0 0 670 0 670 -950 0 -950 0 0 -670z m920
220 l0 -50 -65 0 -65 0 0 -105 0 -105 -60 0 -60 0 0 105 0 105 -66 0 -66 0 26
-35 c14 -19 29 -47 32 -63 7 -34 -17 -86 -45 -102 -11 -6 -91 -10 -185 -10
l-166 0 0 55 0 55 126 0 125 0 -24 33 c-34 44 -41 73 -27 108 23 54 43 58 293
59 l227 0 0 -50z m257 -60 c17 -58 38 -126 46 -152 l15 -48 -58 0 c-50 0 -60
3 -65 20 -5 17 -15 20 -60 20 -44 0 -53 -3 -58 -20 -4 -17 -14 -20 -61 -20
-31 0 -56 3 -56 8 -1 4 18 73 42 155 l43 147 90 -2 90 -3 32 -105z m343 95
c38 -20 64 -69 55 -104 -3 -14 -18 -38 -33 -53 l-26 -28 87 0 87 0 0 -55 0
-55 -110 0 -110 0 -45 41 -45 42 0 -42 0 -41 -65 0 -65 0 0 155 0 155 120 0
c89 0 129 -4 150 -15z m-1179 -372 l13 -38 9 38 9 37 68 0 c68 0 68 0 75 -30
4 -16 10 -30 15 -30 5 0 11 14 15 30 6 29 8 30 67 30 l60 0 -7 -27 c-3 -16
-24 -85 -46 -155 l-40 -128 -53 0 -53 0 -13 48 c-19 69 -22 70 -39 11 l-17
-54 -54 0 -54 0 -22 70 c-12 39 -33 107 -47 153 l-25 82 63 0 63 0 13 -37z
m594 -80 c20 -65 40 -131 46 -147 14 -45 13 -46 -47 -46 -47 0 -57 3 -61 20
-6 23 -3 21 -65 26 -42 3 -47 1 -52 -22 -6 -22 -11 -24 -67 -24 -45 0 -60 3
-57 13 3 6 24 76 48 155 l43 142 88 0 88 0 36 -117z m371 83 c42 -42 45 -82 9
-124 -14 -17 -25 -32 -25 -35 0 -2 36 -5 81 -6 75 -2 80 -1 70 17 -5 10 -17
24 -25 31 -37 31 -23 116 23 141 11 5 72 10 135 10 l116 0 0 -50 0 -50 -75 0
c-41 0 -75 -4 -75 -8 0 -5 11 -19 25 -32 51 -48 38 -134 -23 -159 -20 -9 -77
-11 -176 -9 l-147 3 -37 40 -37 39 -3 -42 -3 -42 -60 0 -59 0 0 155 0 155 126
0 126 0 34 -34z m324 -266 c0 -5 -4 -10 -9 -10 -6 0 -13 5 -16 10 -3 6 1 10 9
10 9 0 16 -4 16 -10z"/>
<path d="M1047 809 c-11 -39 -8 -49 14 -49 16 0 19 4 13 23 -13 44 -21 51 -27
26z"/>
<path d="M1380 833 c0 -14 8 -18 30 -17 48 2 50 3 50 19 0 11 -11 15 -40 15
-31 0 -40 -4 -40 -17z"/>
<path d="M802 450 c-15 -42 -16 -40 8 -40 21 0 25 19 11 54 -7 18 -9 16 -19
-14z"/>
<path d="M1140 485 c0 -11 11 -15 40 -15 29 0 40 4 40 15 0 11 -11 15 -40 15
-29 0 -40 -4 -40 -15z"/>
</g>
</svg>
